# xmcd
#
# Track frame offsets: 
#        150
#        20360
#        44095
#        63190
#        83857
#        111626
#        128084
#        148381
#        169276
#        189426
#        206776
#        223571
#        240941
#        253069
#        268106
#
# Disc length: 3871 seconds
#
# Revision: 3
# Processed by: cddbd v1.5.2PL0 Copyright (c) Steve Scherf et al.
# Submitted via: ExactAudioCopyFreeDBPlugin 1.0
#
DISCID=e80f1d0f
DTITLE=Various Artist - 2004 Phono Compilation Vol.5 (Blues)
DYEAR=2004
DGENRE=Blues
TTITLE0=Marcia Ball - Louella (Presumed Innocent)
TTITLE1=Albert Collins - When A Guitar Plays The Blues (Don't Lose You
TTITLE1=r Cool)
TTITLE2=Elvin Bishop - Shady Lane (The Skin I'm In)
TTITLE3=Buddy Guy - She's Out There Somewhere (Stone Crazy!)
TTITLE4=Son Seal - Sadie (Hound Dog Taylor: A Tribute)
TTITLE5=Marcia Ball - If It's Really Got To Be This Way (So Many River
TTITLE5=s)
TTITLE6=Kenny Neal - The Truth Hurt (Deluxe Edition)
TTITLE7=William Clarke - Going Down This Highway (Deluxe Edition)
TTITLE8=Little Charlie and The Nightcaps - Don't Do It (Deluxe Edition)
TTITLE9=Buddy Guy and Junior Wells - Give Me My Coat And Shoes (Alone and 
TTITLE9=Acoustic)
TTITLE10=Lonnie Brooks - Jealous Man (Deluxe Edition)
TTITLE11=Elvin Bishop and Smokey Smothers - Stomp (That's My Partner!)
TTITLE12=Albert Collins - Avalanche (Ice Pickin')
TTITLE13=Roy Buchanan - Peter Gunn (Deluxe Edition)
TTITLE14=Koko Taylor - I'd Rather Go Blind (Deluxe Edition)
EXTD=
EXTT0=
EXTT1=
EXTT2=
EXTT3=
EXTT4=
EXTT5=
EXTT6=
EXTT7=
EXTT8=
EXTT9=
EXTT10=
EXTT11=
EXTT12=
EXTT13=
EXTT14=
PLAYORDER=
